<?xml version="1.0" encoding="UTF-8" standalone="no"?>
<!-- Created with Inkscape (http://www.inkscape.org/) -->

<svg
   xmlns:dc="http://purl.org/dc/elements/1.1/"
   xmlns:cc="http://creativecommons.org/ns#"
   xmlns:rdf="http://www.w3.org/1999/02/22-rdf-syntax-ns#"
   xmlns:svg="http://www.w3.org/2000/svg"
   xmlns="http://www.w3.org/2000/svg"
   xmlns:sodipodi="http://sodipodi.sourceforge.net/DTD/sodipodi-0.dtd"
   xmlns:inkscape="http://www.inkscape.org/namespaces/inkscape"
   version="1.0"
   width="606.61981"
   height="410.63022"
   id="svg2"
   inkscape:version="0.48.2 r9819"
   sodipodi:docname="Collaboration_logo_Berdea.svg">
  <metadata
     id="metadata57">
    <rdf:RDF>
      <cc:Work
         rdf:about="">
        <dc:format>image/svg+xml</dc:format>
        <dc:type
           rdf:resource="http://purl.org/dc/dcmitype/StillImage" />
        <dc:title></dc:title>
      </cc:Work>
    </rdf:RDF>
  </metadata>
  <sodipodi:namedview
     pagecolor="#ffffff"
     bordercolor="#666666"
     borderopacity="1"
     objecttolerance="10"
     gridtolerance="10"
     guidetolerance="10"
     inkscape:pageopacity="0"
     inkscape:pageshadow="2"
     inkscape:window-width="1366"
     inkscape:window-height="744"
     id="namedview55"
     showgrid="false"
     inkscape:zoom="1.0261527"
     inkscape:cx="130.52157"
     inkscape:cy="148.31015"
     inkscape:window-x="0"
     inkscape:window-y="24"
     inkscape:window-maximized="1"
     inkscape:current-layer="svg2"
     showguides="true"
     inkscape:guide-bbox="true" />
  <defs
     id="defs4" />
  <path
     d="m 323.29648,95.778707 74.0978,223.439963 c 0,0 22.98249,-1.21118 40.52696,0 11.28562,0.77912 20.2326,-4.2451 28.81074,-12.86733 11.12088,-11.17799 21.39428,-24.42815 21.39428,-24.42815 l 113.83063,1.60437 0.2075,-205.39762 L 494.175,79.461941 C 449.95141,47.179134 389.6412,10.370972 350.96465,4.4554257"
     style="fill:#afdde9;fill-opacity:1;fill-rule:nonzero;stroke:#000000;stroke-width:8.91085243000000027;stroke-linecap:round;stroke-linejoin:round;stroke-miterlimit:4;stroke-opacity:1;stroke-dasharray:none"
     id="path5219"
     inkscape:connector-curvature="0" />
  <path
     d="M 4.6693035,73.943439 122.07693,73.707924 c 30.26697,-37.622138 59.62532,-38.32516 94.09727,-50.153673 81.31904,-27.9033971 129.28662,57.616515 150.36939,73.600253 2.98095,2.259995 4.52896,3.744176 6.69884,6.414246 35.53406,43.72509 41.23137,47.83752 64.48794,74.44943 16.90658,19.31965 22.87325,21.72407 23.0966,52.74382 0.25007,34.72929 -3.42172,85.70865 -3.42172,85.70865 -4.84342,16.1912 -20.0891,25.45979 -33.25796,25.98179 -13.47301,16.45464 -26.34113,19.85128 -42.23366,14.51794 -6.75824,15.74156 -20.03258,24.66703 -38.70821,23.54632 -10.92839,10.71083 -16.70429,11.03169 -33.56407,7.64908 C 204.75127,395.31641 155.65311,337.6258 107.53467,278.79653 L 4.455424,280.20932 4.6693282,73.943385 z"
     style="fill:#37abc8;fill-opacity:1;fill-rule:nonzero;stroke:#000000;stroke-width:8.91085243000000027;stroke-linecap:round;stroke-linejoin:round;stroke-miterlimit:4;stroke-opacity:1;stroke-dasharray:none"
     id="path3247"
     inkscape:connector-curvature="0" />
  <path
     d="m 114.02348,307.31002 40.52693,-41.29146 c 17.75141,-3.95291 30.77839,18.31051 22.98546,33.96556 l -35.68792,45.95338 c -18.5659,-0.80802 -33.19394,-20.37706 -27.82447,-38.62748 z"
     style="fill:#afdde9;fill-opacity:1;fill-rule:nonzero;stroke:#000000;stroke-width:8.91085243000000027;stroke-linecap:round;stroke-linejoin:round;stroke-miterlimit:4;stroke-opacity:1;stroke-dasharray:none"
     id="path5211"
     inkscape:connector-curvature="0" />
  <path
     d="m 153.31845,338.54956 c 25.41354,-39.36028 47.41928,-58.10068 72.90348,-93.09256 19.78134,-19.53476 50.23422,4.42648 37.91812,27.42179 -12.3161,22.99531 -73.13698,90.98145 -78.7521,96.831 -14.47065,7.66263 -38.25709,-9.74276 -32.0695,-31.16023 z"
     style="fill:#afdde9;fill-opacity:1;fill-rule:nonzero;stroke:#000000;stroke-width:8.91085243000000027;stroke-linecap:round;stroke-linejoin:round;stroke-miterlimit:4;stroke-opacity:1;stroke-dasharray:none"
     id="path5205"
     inkscape:connector-curvature="0" />
  <path
     d="m 342.88382,379.82386 c 1.84561,-27.20725 2.7861,-52.50979 1.2041,-68.21964 -8.5255,-16.95214 -41.93587,-42.79607 -68.34577,-64.31256"
     style="fill:none;stroke:#000000;stroke-width:8.91085243;stroke-linecap:round;stroke-linejoin:round;stroke-miterlimit:4;stroke-opacity:1;stroke-dasharray:none"
     id="path5213"
     inkscape:connector-curvature="0" />
  <path
     d="m 201.73107,360.58932 c 30.33298,-36.16439 56.14577,-76.85345 85.89292,-113.8845 18.12807,-20.63493 51.18426,7.17347 38.10743,27.30564 -20.58499,31.69125 -77.87337,105.51509 -88.31245,116.54844 -14.31258,6.43685 -38.07056,-9.41141 -35.6879,-29.96958 z"
     style="fill:#afdde9;fill-opacity:1;fill-rule:nonzero;stroke:#000000;stroke-width:8.91085243000000027;stroke-linecap:round;stroke-linejoin:round;stroke-miterlimit:4;stroke-opacity:1;stroke-dasharray:none"
     id="path5207"
     inkscape:connector-curvature="0" />
  <path
     d="M 350.01628,4.6419405 C 323.53527,11.063749 285.62171,39.946523 254.57135,58.150226 230.37618,140.48036 212.01181,166.91931 235.21521,173.36667 c 34.79755,12.2217 71.8779,-49.08808 85.89293,-88.576807 l 48.7347,13.226479"
     style="fill:#afdde9;fill-opacity:1;fill-rule:nonzero;stroke:#000000;stroke-width:8.91085243000000027;stroke-linecap:round;stroke-linejoin:round;stroke-miterlimit:4;stroke-opacity:1;stroke-dasharray:none"
     id="path5223"
     inkscape:connector-curvature="0" />
  <path
     d="m 382.20101,357.18018 0.60488,-84.58089 -61.09286,-61.27117 -1.20978,-7.32589"
     style="fill:none;stroke:#000000;stroke-width:8.91085243;stroke-linecap:round;stroke-linejoin:round;stroke-miterlimit:4;stroke-opacity:1;stroke-dasharray:none"
     id="path5215"
     inkscape:connector-curvature="0" />
  <path
     d="m 351.35214,153.38693 c 0,0 0.66911,1.17313 1.20978,6.65992 2.64702,4.2687 59.28216,61.04189 66.53676,73.92496 0.20726,36.40754 0.80088,72.14906 4.23417,108.55655"
     style="fill:none;stroke:#000000;stroke-width:8.91085243;stroke-linecap:round;stroke-linejoin:round;stroke-miterlimit:4;stroke-opacity:1;stroke-dasharray:none"
     id="path5217"
     inkscape:connector-curvature="0" />
  <path
     d="m 252.91934,386.03438 c 2.19053,-4.20167 47.00163,-69.01066 67.56284,-91.7749 16.98938,-18.80975 47.88555,10.56394 28.31456,36.36041 -24.66089,32.50537 -41.71525,56.46916 -63.42337,74.38401 -13.8987,4.34399 -34.18533,-3.7127 -32.45403,-18.96952 z"
     style="fill:#afdde9;fill-opacity:1;fill-rule:nonzero;stroke:#000000;stroke-width:8.91085243000000027;stroke-linecap:round;stroke-linejoin:round;stroke-miterlimit:4;stroke-opacity:1;stroke-dasharray:none"
     id="path5209"
     inkscape:connector-curvature="0" />
</svg>
